<svg width="21" height="18" viewBox="0 0 21 18" fill="none" xmlns="http://www.w3.org/2000/svg">
<path d="M10.5 17.25C10.5 17.25 1.125 12 1.125 5.62501C1.125 4.49803 1.51546 3.40585 2.22996 2.53431C2.94445 1.66277 3.93884 1.0657 5.04393 0.844677C6.14903 0.623658 7.29657 0.792346 8.29131 1.32204C9.28605 1.85174 10.0665 2.70972 10.5 3.75001C10.9335 2.70972 11.7139 1.85174 12.7087 1.32204C13.7034 0.792346 14.851 0.623658 15.9561 0.844677C17.0612 1.0657 18.0555 1.66277 18.77 2.53431C19.4845 3.40585 19.875 4.49803 19.875 5.62501C19.875 12 10.5 17.25 10.5 17.25Z" stroke="#191C1F" stroke-width="1.5" stroke-linecap="round" stroke-linejoin="round"/>
</svg>
