<svg width="28" height="28" viewBox="0 0 28 24" fill="none" xmlns="http://www.w3.org/2000/svg">
<path d="M14 23C14 23 1.5 16 1.5 7.5C1.5 5.99735 2.02062 4.54112 2.97328 3.37907C3.92593 2.21701 5.25178 1.42091 6.72525 1.12622C8.19871 0.831528 9.72876 1.05645 11.0551 1.76271C12.3814 2.46897 13.4221 3.61294 14 5C14.5779 3.61294 15.6186 2.46897 16.9449 1.76271C18.2712 1.05645 19.8013 0.831528 21.2748 1.12622C22.7482 1.42091 24.0741 2.21701 25.0267 3.37907C25.9794 4.54112 26.5 5.99735 26.5 7.5C26.5 16 14 23 14 23Z" stroke="white" stroke-width="2" stroke-linecap="round" stroke-linejoin="round"/>
</svg>
